<svg width="105" height="105" viewBox="0 0 105 105" xmlns="http://www.w3.org/2000/svg">
    <g fill-rule="nonzero" fill="none">
        <path fill="#009DDB" d="M0 0h105v105H0z"/>
        <g fill="#FFF">
            <path d="M90.789 47.47c0-1.46-.876-2.628-1.679-3.65-.656-.876-1.313-1.752-1.313-2.628 0-1.168.657-1.898 1.678-1.898.511 0 .949.219 1.314.365.438.219.876.365 1.386.365.73 0 1.314-.73 1.314-1.387 0-.73-.73-1.46-2.043-1.46-2.92 0-5.547 3.358-5.547 5.986 0 1.46.876 2.555 1.606 3.504.584.803 1.167 1.46 1.167 2.19 0 1.168-1.094 1.899-2.116 1.899s-1.751-.658-2.335-1.169c-.438-.365-.803-.73-1.241-.73-.584 0-.73 1.168-.73 1.606 0 .658 1.387 1.826 2.992 1.826 2.482 0 5.547-2.264 5.547-4.819M26.712 29a.157.157 0 0 0-.146.146v.73c0 .073 0 .073.073.146l.438.073.584.073c.73.146.876.22.876.584 0 .584-.657 2.482-1.606 5.11L26.13 38.2c-.73 2.117-1.825 4.964-2.847 7.592-1.167 3.066-2.116 5.476-2.116 5.84 0 .366.219.512 1.095.512.948 0 1.386-.146 1.46-.511 1.678-5.403 6.203-11.608 8.538-11.608.73 0 1.022.292 1.022 1.022 0 1.24-1.022 3.504-2.044 5.694-.876 1.898-1.678 3.723-1.678 4.6 0 .803.365 1.168 1.094 1.168 2.336 0 4.087-2.118 5.474-3.797l.219-.219v-.073l-.073-.073-.511-.584-.073-.073h-.073c-.803.803-2.116 2.117-2.481 2.117-.073 0-.146 0-.22-.073-.072-.073-.072-.146-.072-.365 0-.146.292-.803.584-1.606.875-2.117 2.335-5.694 2.335-7.811 0-1.68-.803-2.628-2.19-2.628-2.846 0-5.108 3.212-6.203 4.818-.219.365-.51.73-.584.73h-.073c-.073-.073.146-.438.365-1.095.292-.73.803-1.825 1.387-3.431 2.116-5.549 3.065-8.542 3.065-8.761 0-.365-.292-.365-.584-.365h-4.233V29zM20.436 48.857v-.146l-.51-.51-.074-.074h-.073l-.073.073c-.875.803-2.554 2.19-4.087 2.337a1.884 1.884 0 0 1-1.532-.512c-.511-.438-.803-1.168-.876-2.044-.073-2.263 1.825-5.767 3.795-7.811 1.022-1.095 1.97-1.68 2.7-1.68.803 0 1.314.585 1.825 1.169.438.51.803 1.022 1.386 1.022.22 0 .438-.146.657-.292.22-.22.292-.511.292-.803-.073-.876-.876-2.336-2.919-2.336-2.335-.073-5.255 1.387-7.444 3.65-2.043 2.117-3.138 4.672-3.065 7.154.073 2.044 1.168 4.308 4.087 4.308 2.919-.073 5.473-2.629 5.911-3.505zM58.24 43.601c-.073.146-.22.438-.292.438h-.073v-.073c0-.146.146-.73.365-1.533.365-1.46.803-3.431.803-4.015 0-.73-.438-1.168-1.168-1.168-1.533 0-3.868 2.555-4.67 3.942v.146l.437.51.073.074c.073 0 .073 0 .073-.073l.146-.146.146-.146c.51-.657 1.605-2.044 2.19-2.044.291 0 .51.292.51.876 0 1.387-1.532 5.548-2.481 8.322-.584 1.533-.949 2.702-.949 2.92 0 .293.146.439.365.439h1.314c.292 0 .365-.146.51-.584 0 0 .657-1.534 1.022-2.264 2.555-5.256 4.014-7.957 5.036-8.98.73-.73 1.24-1.021 1.605-1.021.292 0 .438.219.657.438.22.219.438.51.803.51.292 0 .51-.072.73-.291.292-.292.51-.803.51-1.387 0-.95-.656-1.314-1.24-1.314-2.335.073-4.087 1.825-6.422 6.424zM50.139 36.958c-.219.073-.292.219-.438.438-.146.219-.292.438-.51.438-.22 0-.439-.073-.658-.073a6.715 6.715 0 0 0-1.386-.146c-6.495 0-9.925 8.76-9.925 11.753 0 2.045 1.094 2.994 2.262 2.994 1.387 0 3.284-.438 5.692-4.162 0 0 .511-.876.584-.876h.073v.146l-.219.438c-.292.657-.876 1.825-.876 2.994 0 .51.146.949.365 1.168.22.219.511.292.95.292 2.262-.073 4.232-2.92 4.962-4.016V48.2l-.511-.584c-.073-.073-.146-.073-.146 0l-.51.584c-.658.803-1.533 1.898-1.971 1.898-.146 0-.22 0-.22-.073-.072-.073-.072-.219-.072-.438.073-.73 1.386-4.307 2.481-7.227.803-2.117 1.533-4.015 1.533-4.307 0-.073 0-.292-.22-.365l-.875-.584h-.073c-.073-.073-.146-.146-.292-.146zm-10.29 11.68c0-4.234 3.357-10.147 6.714-10.147 1.095 0 1.752.657 1.752 1.752 0 1.752-4.598 9.782-7.444 9.782-.657.073-1.022-.219-1.022-1.387zM71.303 48.2c0 2.41 1.606 4.089 3.868 4.089 2.7 0 5.474-2.556 6.13-3.432v-.146l-.437-.51c-.073-.074-.146-.074-.146 0l-.365.291c-.876.657-2.482 1.898-3.722 1.898-1.46 0-2.409-.949-2.409-2.482 0-1.825.876-3.212 1.606-4.234 0 0 .073-.073.073-.146h.219l1.387.073c2.408 0 6.933-1.168 6.933-3.942 0-1.168-1.095-2.336-2.993-2.336-4.16-.073-10.144 5.621-10.144 10.877zM80.937 38.2c.73 0 1.24.51 1.24 1.24 0 1.826-2.043 2.848-5.692 2.92.73-1.24 2.7-4.16 4.452-4.16zM70.136 48.346c.073-.073 0-.146 0-.146l-.511-.657-.073-.073s-.073 0-.073.073l-.146.22c-1.24 1.386-1.97 2.19-2.555 2.19-.073 0-.146 0-.218-.074-.073-.073-.146-.219-.146-.438 0-.803 1.313-4.453 3.867-11.17l1.898-4.818c.949-2.555 1.46-3.796 1.46-3.942 0-.073 0-.219-.073-.292-.073-.073-.292-.146-.511-.146h-4.38a.157.157 0 0 0-.145.146v.73c0 .073 0 .073.073.146l.949.073c.657.073.875.292.875.73 0 .584-2.846 7.593-2.846 7.593-1.532 3.796-4.087 10.293-4.16 11.826 0 .658.146 1.242.438 1.607.292.292.73.51 1.314.51 1.751 0 3.576-2.19 4.744-3.65l.219-.438zM10.51 61.487c0 2.044 1.606 3.14 3.212 4.016l.657.365c1.605.803 2.262 1.606 2.262 2.847 0 1.387-.876 2.409-2.19 2.409-2.043 0-3.21-2.19-3.721-3.431l-.73.219c.219 1.314.438 2.7.657 3.285l.365.146.948.292c.584.219 1.387.365 2.117.365 2.846 0 4.89-1.752 4.89-4.38 0-2.41-1.825-3.505-3.212-4.089l-.51-.219c-1.752-.803-2.482-1.606-2.482-2.7 0-1.096.657-2.19 2.117-2.19 1.751 0 2.408 1.386 2.773 2.7l.73-.146v-.073c-.22-1.022-.292-1.97-.438-2.847l-.511-.146-.438-.146c-.51-.219-1.24-.292-1.97-.292-2.628-.073-4.525 1.606-4.525 4.015zM20.436 64.919c0 3.504 2.408 7.008 7.882 7.008 1.387 0 3.211-.438 4.014-.657.365-.876.876-2.628 1.095-3.577v-.073l-.657-.146c-1.095 2.19-2.117 3.43-4.452 3.43-2.992 0-5.036-2.7-5.036-6.643 0-2.774 1.314-5.986 5.036-5.986 2.19 0 3.357.95 3.94 3.14l.658-.074-.073-.949-.292-2.482-.365-.073c-.73-.146-1.97-.438-3.43-.438-4.89 0-8.32 3.14-8.32 7.52zM49.336 57.764H43.28v.657c1.532.146 1.751.22 1.751 2.555v2.774h-6.422v-2.774c0-2.336.22-2.409 1.679-2.555h.073v-.657h-6.13v.657c1.824.146 1.897.292 1.897 2.555v7.447c0 2.263-.146 2.409-1.825 2.555v.657h6.13v-.657c-1.605-.146-1.824-.22-1.824-2.555v-3.577h6.422v3.577c0 2.263-.146 2.409-1.897 2.555v.657h6.203v-.657c-1.605-.146-1.751-.22-1.751-2.555v-7.447c0-2.263.146-2.409 1.824-2.555l-.073-.657zM70.573 57.764h-4.89v.657l.804.073c.437 0 .656.146.73.292.072.073.072.22.072.438 0 .22-.073.511-.146.95-.073.218-1.24 4.818-2.116 7.884-.146-.438-3.722-10.075-3.722-10.075h-.876s-3.138 9.929-3.21 10.075c-.147-.438-2.482-8.25-2.482-8.25-.073-.292-.146-.51-.146-.73 0-.146 0-.219.073-.292.146-.146.365-.219.73-.292l.656-.073v-.657h-5.838v.657c1.168.146 1.46.22 2.043 2.044l3.503 11.316h1.022s3.284-9.783 3.284-9.929c.146.438 3.576 9.929 3.576 9.929h1.022c1.97-6.57 3.576-11.17 3.576-11.243.73-1.97.876-2.044 2.19-2.117l.145-.657zM74.222 61.122c0 .073 1.606 4.527 1.606 4.6h-3.284c.073-.146 1.678-4.6 1.678-4.6zm2.7.365-1.459-3.869-.876.073-4.306 11.097c-.73 1.898-.948 1.97-2.262 2.117v.657h4.817v-.657l-.657-.073c-.438-.073-.73-.146-.803-.292-.073-.073-.073-.146-.073-.292 0-.22.073-.438.22-.876l.145-.365c.292-.876.584-1.825.803-2.336h3.868c.438 1.168.949 2.409 1.168 2.993.072.292.145.438.145.657 0 .073 0 .146-.073.219-.072.146-.291.219-.656.292l-.657.073v.657h5.692v-.657c-1.167-.146-1.46-.22-2.19-2.117l-2.845-7.3zM86.994 59.662c0-.51 0-.876.146-.949.073 0 .292-.073.949-.073.656 0 2.627.146 2.627 2.555 0 1.68-1.022 2.628-2.92 2.628h-.802v-4.16zm-4.087-1.898-.073.657c1.46.146 1.679.22 1.679 2.555v7.447c0 2.336-.22 2.409-1.825 2.555v.657h5.328c1.678 0 3.138-.292 4.087-.876C93.416 69.956 94 68.934 94 67.547c0-1.898-1.387-3.286-3.722-3.578 1.022-.219 2.92-1.095 2.92-3.066 0-1.095-.366-1.898-1.241-2.409-.803-.511-1.679-.73-3.285-.73h-5.765zm4.744 6.862c2.335 0 3.722 1.169 3.722 3.14 0 2.19-1.46 2.92-2.774 2.92-.583 0-.948-.073-1.167-.292-.365-.292-.365-1.022-.365-2.044v-3.724h.584z"/>
        </g>
    </g>
</svg>
